<svg id="Capa_1" data-name="Capa 1" xmlns="http://www.w3.org/2000/svg" viewBox="0 0 210 200"><defs><style>.cls-1{fill:#005cb9;}</style></defs><path class="cls-1" d="M205.17,118.31l-2.58-20.53a13.39,13.39,0,0,0-13-11.79l-26.19-.81a13.42,13.42,0,0,0-13.65,11l-3,15.93c-1.26-.85-2.48-1.74-3.68-2.67V96.34a30.16,30.16,0,0,0-27.18-30c-.48-2.23-.86-4.48-1.12-6.73l15.58,4.64a13.4,13.4,0,0,0,16-7.1l11.29-23.65a13.4,13.4,0,0,0-4.53-16.91L136.08,4.91a13.46,13.46,0,0,0-8.43-2.32,4.73,4.73,0,0,0-2.27.11,61.38,61.38,0,0,0-14.21,6.35c-15.56,9.48-26,25.17-29.47,44.18a75.52,75.52,0,0,0-1.18,13H34.85A30.15,30.15,0,0,0,4.73,96.34v87.18a13.83,13.83,0,0,0,8.12,12.68,14.11,14.11,0,0,0,5.88,1.3,13.86,13.86,0,0,0,9-3.38l12.11-10.38H113a30.16,30.16,0,0,0,30.12-30.12v-7.69a68.27,68.27,0,0,0,14.46,1.59,61.82,61.82,0,0,0,44.61-18.75,4.82,4.82,0,0,0,1-1.64A13.29,13.29,0,0,0,205.17,118.31ZM36.23,104.59H73.92a4.76,4.76,0,0,1,0,9.51H36.23a4.76,4.76,0,0,1,0-9.51ZM91.74,147H36.23a4.76,4.76,0,0,1,0-9.52H91.74a4.76,4.76,0,1,1,0,9.52ZM194.85,122.5a3.36,3.36,0,0,0-.39.54,52.42,52.42,0,0,1-9.39,7.32c-12.35,7.52-27.15,9.55-42,5.81-1-.26-2.05-.55-3.08-.86-16-4.92-30-16-39.24-31.21A72.09,72.09,0,0,1,90,66.22a65.66,65.66,0,0,1,1-11.29c3-16.3,11.85-29.71,25.06-37.76a52.07,52.07,0,0,1,10.46-4.87,5.58,5.58,0,0,0,1-.12,3.88,3.88,0,0,1,3.13.58l17.07,11.7a3.93,3.93,0,0,1,1.33,5L137.81,53.08a4,4,0,0,1-4.71,2.09l-19.83-5.92a4,4,0,0,1-1-.5,4.75,4.75,0,0,0-7.37,4,78.78,78.78,0,0,0,1.34,13.43,83.58,83.58,0,0,0,10.8,28A82.51,82.51,0,0,0,143.11,121q2.53,1.62,5.19,3a4.76,4.76,0,0,0,7-4.68,3.9,3.9,0,0,1,0-1.14l3.83-20.33A3.94,3.94,0,0,1,163,94.68h.13l26.19.81a3.92,3.92,0,0,1,3.8,3.46l2.58,20.53h0A3.93,3.93,0,0,1,194.85,122.5Z"/></svg>