<svg id="Capa_1" data-name="Capa 1" xmlns="http://www.w3.org/2000/svg" viewBox="0 0 230 200"><defs><style>.cls-1{fill:#005cb9;}</style></defs><rect class="cls-1" x="70.93" y="71.91" width="29.03" height="47.45"/><path class="cls-1" d="M220.83,54.07a4.28,4.28,0,0,0-.09-.87,1.16,1.16,0,0,0,0-.18,1.55,1.55,0,0,0,0-.21l-9.55-35.07v-3.5A13.47,13.47,0,0,0,197.65.79H161a13.46,13.46,0,0,0-13.45,13.45v3.5L138,52.81a1.55,1.55,0,0,1,0,.21c0,.06,0,.12,0,.18a6.42,6.42,0,0,0-.09.87V71.74A30.9,30.9,0,0,0,131,71H110v53.39a5,5,0,0,1-5,5H65.91a5,5,0,0,1-5-5V71h-21a30.7,30.7,0,0,0-30.7,30.7v66.83a30.69,30.69,0,0,0,30.7,30.7H131a30.88,30.88,0,0,0,8.55-1.21,5,5,0,0,0,3.24,1.21h73a5,5,0,0,0,5-5V54.07ZM161,10.82h36.68A3.44,3.44,0,0,1,201,13.39H157.65A3.44,3.44,0,0,1,161,10.82Zm-4.61,12.61h45.9l7,25.68H149.37ZM210.8,189.18H153.71a30.6,30.6,0,0,0,8-20.67V101.68A30.63,30.63,0,0,0,147.82,76V59.14h63Z"/></svg>