<svg id="Capa_1" data-name="Capa 1" xmlns="http://www.w3.org/2000/svg" viewBox="0 0 200 200"><defs><style>.cls-1{fill:#005cb9;}</style></defs><path class="cls-1" d="M78.48,86.22A4.76,4.76,0,0,1,83.24,91V111.9h33V91A4.76,4.76,0,0,1,121,86.22a7.59,7.59,0,1,0-4.22-13.9,4.76,4.76,0,0,1-7.41-3.79,9.63,9.63,0,0,0-19.26,0,4.76,4.76,0,0,1-7.41,3.79,7.59,7.59,0,1,0-4.22,13.9Z"/><path class="cls-1" d="M181.2,86.86A86.42,86.42,0,0,0,94.88.79h-58a19,19,0,0,0-19,19V181.55A17.67,17.67,0,0,0,35.55,199.2h65c6,0,36.14-1.22,58.26-24.72C177.36,154.82,184.87,125.34,181.2,86.86ZM78.48,61.52a17.5,17.5,0,0,1,3.4.34,19.18,19.18,0,0,1,35.72,0,17.5,17.5,0,0,1,3.4-.34,17.11,17.11,0,0,1,4.76,33.55v21.59a4.76,4.76,0,0,1-4.76,4.76H78.48a4.76,4.76,0,0,1-4.76-4.76V95.07a17.11,17.11,0,0,1,4.76-33.55ZM27.42,19.77a9.46,9.46,0,0,1,6-8.82V164c-.33,0-.65.1-1,.16l-.54.09c-.55.11-1.09.25-1.62.41l-.18.07c-.47.15-.92.32-1.37.5l-.52.24c-.27.13-.55.25-.82.39ZM152,167.88c-21.07,22.47-51.63,21.82-52.09,21.8H35.55a8.13,8.13,0,1,1,0-16.26H94.88a85.78,85.78,0,0,0,61-25.28c.91-.91,1.79-1.85,2.65-2.79l.72-.8c.68-.76,1.34-1.52,2-2.3.18-.22.38-.45.56-.68.8-1,1.58-2,2.33-3l.47-.64c.6-.82,1.19-1.66,1.77-2.51l.6-.89c.64-1,1.26-1.94,1.86-2.94l.16-.25c.53-.9,1.05-1.8,1.55-2.7C167.63,144.7,161.43,157.82,152,167.88Z"/></svg>